<?xml version="1.0" standalone="no"?>
<!DOCTYPE svg PUBLIC "-//W3C//DTD SVG 20010904//EN"
 "http://www.w3.org/TR/2001/REC-SVG-20010904/DTD/svg10.dtd">
<svg version="1.0" xmlns="http://www.w3.org/2000/svg"
 width="512.000000pt" height="512.000000pt" viewBox="0 0 512.000000 512.000000"
 preserveAspectRatio="xMidYMid meet">
<metadata>
Created by potrace 1.11, written by Peter Selinger 2001-2013
</metadata>
<g transform="translate(0.000000,512.000000) scale(0.100000,-0.100000)"
fill="#000000" stroke="none">
<path d="M2425 5114 c-639 -38 -1220 -298 -1670 -749 -415 -414 -659 -917
-736 -1515 -16 -122 -16 -458 0 -580 77 -599 321 -1100 736 -1515 414 -415
917 -659 1515 -736 122 -16 458 -16 580 0 599 77 1101 320 1516 735 415 415
658 917 735 1516 16 122 16 458 0 580 -77 598 -321 1101 -736 1515 -412 413
-929 664 -1505 734 -97 12 -346 20 -435 15z m-612 -1364 c41 -10 106 -34 144
-54 75 -37 200 -132 195 -147 -8 -29 -55 -89 -69 -89 -9 0 -43 21 -76 46 -135
106 -274 150 -442 139 -165 -11 -245 -40 -337 -124 -153 -140 -180 -388 -58
-539 34 -43 117 -105 186 -140 23 -12 135 -53 250 -92 288 -98 377 -142 468
-233 81 -80 117 -145 136 -245 15 -75 8 -210 -15 -297 -60 -225 -239 -399
-475 -462 -98 -27 -358 -24 -461 5 -132 36 -277 122 -373 221 l-40 41 30 42
c16 24 37 44 45 46 9 2 50 -25 92 -60 165 -138 267 -179 462 -186 101 -3 146
0 195 12 200 51 337 180 385 362 17 63 22 190 10 245 -20 92 -95 185 -200 248
-32 19 -166 72 -308 121 -294 100 -378 141 -464 226 -107 104 -150 229 -140
399 17 282 222 491 527 536 81 11 248 1 333 -21z m2124 -1102 c249 -607 455
-1111 458 -1120 6 -16 0 -18 -58 -18 -47 0 -71 5 -87 18 -14 11 -69 134 -155
347 l-134 330 -554 3 -555 2 -131 -327 c-90 -224 -140 -335 -157 -350 -21 -19
-37 -23 -90 -23 -36 0 -64 4 -62 9 2 4 208 508 458 1119 l455 1111 80 1 80 0
452 -1102z"/>
<path d="M3386 3543 c-12 -37 -443 -1116 -483 -1210 -4 -10 100 -13 502 -13
402 0 506 3 502 13 -17 44 -489 1226 -496 1242 -6 16 -11 11 -25 -32z"/>
</g>
</svg>
